<svg width="250" height="102" viewBox="0 0 250 102" fill="none" xmlns="http://www.w3.org/2000/svg">
<g clip-path="url(#clip0_516_1458)">
<path fill-rule="evenodd" clip-rule="evenodd" d="M56.308 24.0831C56.5448 24.6358 56.8762 25.1173 57.3024 25.5273C57.7284 25.9378 58.2175 26.2612 58.7701 26.4979C59.322 26.7346 59.9138 26.853 60.5456 26.853C61.1768 26.853 61.7687 26.7346 62.3213 26.4979C62.8732 26.2612 63.363 25.9378 63.7891 25.5273C64.2152 25.1173 64.5467 24.6358 64.7834 24.0831C65.0201 23.5312 65.1385 22.9394 65.1385 22.3075C65.1385 21.6765 65.0201 21.0847 64.7834 20.532C64.5467 19.98 64.2152 19.4903 63.7891 19.0642C63.363 18.6381 62.8732 18.3067 62.3213 18.0699C61.7687 17.8332 61.1768 17.7148 60.5456 17.7148C59.9138 17.7148 59.322 17.8332 58.7701 18.0699C58.2175 18.3067 57.7284 18.6381 57.3024 19.0642C56.8762 19.4903 56.5448 19.98 56.308 20.532C56.0713 21.0847 55.9529 21.6765 55.9529 22.3075C55.9529 22.9394 56.0713 23.5312 56.308 24.0831ZM69.7076 24.0831C69.9444 24.6358 70.2758 25.1173 70.7019 25.5273C71.1281 25.9378 71.6171 26.2612 72.1697 26.4979C72.7216 26.7346 73.3134 26.853 73.9452 26.853C75.2074 26.853 76.2809 26.4113 77.1649 25.5273C78.0482 24.6438 78.4907 23.5704 78.4907 22.3075C78.4907 21.6765 78.3723 21.0847 78.1356 20.532C77.8989 19.98 77.5747 19.4903 77.1649 19.0642C76.7544 18.6381 76.2727 18.3067 75.7208 18.0699C75.1682 17.8332 74.5763 17.7148 73.9452 17.7148C73.3134 17.7148 72.7216 17.8332 72.1697 18.0699C71.6171 18.3067 71.1281 18.6381 70.7019 19.0642C70.2758 19.4903 69.9444 19.98 69.7076 20.532C69.4709 21.0847 69.3525 21.6765 69.3525 22.3075C69.3525 22.9394 69.4709 23.5312 69.7076 24.0831ZM46.72 69.059V68.9044L26.2401 68.2608L46.72 67.9195V60.5401L5.8189 58.9722L46.7229 58.434C46.7516 56.6169 46.9976 54.8633 47.4609 53.1735L30.816 52.6205L47.7268 52.2836C47.9044 51.7355 48.1053 51.1942 48.3298 50.6597C48.9251 49.2428 49.6419 47.9277 50.4803 46.7144L23.5081 45.859L51.652 45.1786C51.9962 44.7691 52.3567 44.3729 52.7333 43.9903C54.5328 42.1622 56.6273 40.7024 59.0169 39.6101L25.0941 33.5375C18.8968 32.9052 16.7466 30.2491 16.7466 30.2491L55.4489 35.8142L51.6546 33.2845C51.6546 33.2845 23.4499 28.9844 18.0114 28.9844C12.5729 28.9844 11.0552 24.5577 11.0552 24.5577C11.0552 24.5577 8.01966 16.8425 7.51376 15.0717C7.00786 13.301 5.86952 12.2892 5.86952 12.2892L0.431016 9.25384C-2.35157 7.1037 8.6521 9.38025 8.6521 9.38025C14.0906 10.3921 15.6083 13.554 15.6083 13.554L23.4499 23.6723C26.3589 27.5931 27.6238 26.3283 27.6238 26.3283L105.155 33.2845V34.0434C102.878 34.0434 98.8308 40.7468 98.8308 40.7468L87.7115 57.0072C87.7511 57.5346 87.7709 58.0676 87.7709 58.6061V68.8703C87.7709 77.5029 81.4669 83.6748 72.9983 83.6748H61.4453C55.9557 83.6748 51.0308 81.1884 48.4368 76.2916L18.3175 75.1589L47.7013 74.6816C47.0472 72.9848 46.72 71.1103 46.72 69.059ZM55.7162 58.7696C55.7162 57.1286 56.0159 55.5737 56.6158 54.1058C60.5791 44.3991 73.8618 44.4209 77.9225 54.0347C78.5218 55.4553 78.8222 56.9703 78.8222 58.5802V68.8548C78.8222 72.281 76.4318 74.7259 72.9983 74.7259H61.4453C59.8354 74.7259 58.478 74.2052 57.3733 73.1634C56.268 72.1218 55.7162 70.7487 55.7162 69.0442V58.7696ZM105.669 37.7944H114.665V78.7032C114.546 89.687 106.544 97.961 96.9092 101.999L93.4528 93.7125C99.4759 91.2323 105.544 86.1336 105.669 79.0819V37.7944ZM141.63 98.7552C141.393 98.2026 141.274 97.6107 141.274 96.9797C141.274 96.3479 141.393 95.7559 141.63 95.204C141.866 94.6514 142.198 94.1624 142.624 93.7363C143.05 93.3101 143.539 92.9787 144.092 92.7419C144.644 92.5052 145.235 92.3868 145.867 92.3868C146.498 92.3868 147.09 92.5052 147.643 92.7419C148.195 92.9787 148.684 93.3101 149.111 93.7363C149.537 94.1624 149.868 94.6514 150.105 95.204C150.342 95.7559 150.46 96.3479 150.46 96.9797C150.46 97.6107 150.342 98.2026 150.105 98.7552C149.868 99.3071 149.537 99.7887 149.111 100.199C148.684 100.609 148.195 100.933 147.643 101.17C147.09 101.407 146.498 101.525 145.867 101.525C145.235 101.525 144.644 101.407 144.092 101.17C143.539 100.933 143.05 100.609 142.624 100.199C142.198 99.7887 141.866 99.3071 141.63 98.7552ZM155.031 98.7552C154.792 98.2026 154.674 97.6107 154.674 96.9797C154.674 96.3479 154.792 95.7559 155.031 95.204C155.269 94.6514 155.602 94.1624 156.03 93.7363C156.458 93.3101 156.95 92.9787 157.506 92.7419C158.061 92.5052 158.656 92.3868 159.29 92.3868C159.925 92.3868 160.52 92.5052 161.075 92.7419C161.63 92.9787 162.114 93.3101 162.526 93.7363C162.939 94.1624 163.264 94.6514 163.502 95.204C163.74 95.7559 163.86 96.3479 163.86 96.9797C163.86 98.2418 163.415 99.3152 162.526 100.199C161.638 101.083 160.559 101.525 159.29 101.525C158.656 101.525 158.061 101.407 157.506 101.17C156.95 100.933 156.458 100.609 156.03 100.199C155.602 99.7887 155.269 99.3071 155.031 98.7552ZM188.863 41.5002C187.091 42.4743 185.27 44.0947 183.571 46.6913L166.623 71.1015C166.623 71.1015 165.566 72.7159 166.183 74.7259H163.954V37.7944H154.958V74.7259H139.381C136.223 74.7259 133.651 72.1543 133.651 68.9968V26.8924L183.291 24.8552L188.863 41.5002ZM173.529 83.6824L195.333 52.3827C195.333 52.3827 196.725 48.4619 202.669 48.4619C208.614 48.4619 239.98 49.2208 243.901 70.3426C243.901 70.3426 247.063 80.5873 218.605 82.2314C218.605 82.2314 197.989 83.3698 183.065 81.8521C183.065 81.8521 177.753 80.7137 176.868 84.2552C176.868 84.2552 247.442 95.2587 249.972 71.8603C250.54 66.6075 246.81 43.7823 198.875 41.3792C198.875 41.3792 198.854 41.3671 198.814 41.346L193.159 24.4503L213.921 23.5982L212.009 15.2898L190.39 16.177L185.478 1.50272L176.483 4.51347L180.522 16.5821L93.9728 20.1341L95.8847 28.4425L124.655 27.2617V68.9968C124.655 77.0869 131.31 83.6748 139.381 83.6748H139.617H173.14L173.529 83.6824ZM138.599 -65.1392V-58.0933H141.09V-61.0392C141.09 -62.3867 141.684 -63.0605 142.872 -63.0605C143.06 -63.0605 143.274 -63.0294 143.515 -62.9674V-65.1894C143.247 -65.2611 143.013 -65.2969 142.812 -65.2969C142.017 -65.2969 141.367 -64.9146 140.863 -64.1501V-65.1392H138.599ZM131.936 -62.4082H134.213C134.186 -62.695 134.117 -62.9219 134.005 -63.0892C133.8 -63.395 133.501 -63.5479 133.108 -63.5479C132.728 -63.5479 132.425 -63.4069 132.197 -63.125C132.063 -62.9531 131.976 -62.714 131.936 -62.4082ZM135.399 -64.4869C134.747 -65.0699 133.945 -65.3614 132.994 -65.3614C132.079 -65.3614 131.297 -65.0747 130.65 -64.5012C129.837 -63.7797 129.431 -62.8359 129.431 -61.67C129.431 -61.2686 129.487 -60.8696 129.598 -60.473C129.768 -59.8804 130.027 -59.3858 130.375 -58.9893C131.045 -58.2438 131.947 -57.8711 133.081 -57.8711C133.563 -57.8711 134.028 -57.9452 134.474 -58.0933C134.965 -58.2557 135.376 -58.4804 135.707 -58.767C136.14 -59.1445 136.441 -59.639 136.611 -60.2507H134.18C133.97 -59.9067 133.651 -59.7347 133.222 -59.7347C132.762 -59.7347 132.407 -59.909 132.157 -60.2579C132.032 -60.4347 131.947 -60.6617 131.902 -60.9389H136.758C136.754 -62.5062 136.301 -63.6889 135.399 -64.4869ZM125.3 -65.1392L124.141 -60.9604L122.989 -65.1392H120.444L122.627 -58.0933H125.621L127.865 -65.1392H125.3ZM116.226 -67.8773V-65.9779H118.717V-67.8773H116.226ZM116.226 -58.0933H118.717V-65.1392H116.226V-58.0933ZM111.726 -58.0933H114.218V-67.8773H111.726V-58.0933ZM105.063 -62.4082H107.34C107.314 -62.695 107.244 -62.9219 107.133 -63.0892C106.927 -63.395 106.628 -63.5479 106.235 -63.5479C105.856 -63.5479 105.552 -63.4069 105.324 -63.125C105.19 -62.9531 105.103 -62.714 105.063 -62.4082ZM108.526 -64.4869C107.874 -65.0699 107.073 -65.3614 106.121 -65.3614C105.206 -65.3614 104.425 -65.0747 103.777 -64.5012C102.964 -63.7797 102.558 -62.8359 102.558 -61.67C102.558 -61.2686 102.614 -60.8696 102.726 -60.473C102.895 -59.8804 103.154 -59.3858 103.503 -58.9893C104.172 -58.2438 105.074 -57.8711 106.208 -57.8711C106.691 -57.8711 107.155 -57.9452 107.602 -58.0933C108.093 -58.2557 108.504 -58.4804 108.834 -58.767C109.267 -59.1445 109.568 -59.639 109.738 -60.2507H107.307C107.097 -59.9067 106.778 -59.7347 106.349 -59.7347C105.889 -59.7347 105.534 -59.909 105.284 -60.2579C105.159 -60.4347 105.074 -60.6617 105.03 -60.9389H109.886C109.881 -62.5062 109.428 -63.6889 108.526 -64.4869ZM96.0025 -65.3327H94.9711V-60.6378H95.969C96.5138 -60.6378 96.9402 -60.7501 97.2483 -60.9747C97.8018 -61.3761 98.0788 -62.0356 98.0788 -62.9531C98.0788 -63.9469 97.7975 -64.635 97.2348 -65.0173C96.9224 -65.2275 96.5115 -65.3327 96.0025 -65.3327ZM92.2584 -58.0933H96.5048C96.9469 -58.0933 97.3241 -58.122 97.6368 -58.1793C98.7173 -58.3703 99.5501 -58.951 100.135 -59.9211C100.622 -60.7239 100.865 -61.7464 100.865 -62.9889C100.865 -64.7712 100.356 -66.0925 99.338 -66.9525C98.6057 -67.569 97.6412 -67.8773 96.4445 -67.8773H92.2584V-58.0933ZM66.7642 -65.1392V-58.0933H69.2557V-61.5697C69.2557 -62.6208 69.5839 -63.1465 70.2403 -63.1465C70.3921 -63.1465 70.5328 -63.1082 70.6623 -63.0319C70.8185 -62.941 70.9235 -62.8071 70.977 -62.6305C71.0307 -62.4632 71.0574 -62.1717 71.0574 -61.756V-58.0933H73.549V-61.5697C73.549 -62.6208 73.8749 -63.1465 74.5269 -63.1465C74.9108 -63.1465 75.1587 -62.9745 75.2702 -62.6305C75.3194 -62.4727 75.3439 -62.1813 75.3439 -61.756V-58.0933H77.8355V-62.3724C77.8355 -62.7165 77.8155 -63.0222 77.7752 -63.29C77.6815 -63.892 77.4381 -64.3818 77.0452 -64.7593C76.621 -65.1607 76.0628 -65.3614 75.3708 -65.3614C74.7233 -65.3614 74.1829 -65.1845 73.7499 -64.831C73.558 -64.6732 73.3658 -64.432 73.1739 -64.107C72.7898 -64.9433 72.1179 -65.3614 71.1579 -65.3614C70.247 -65.3614 69.5594 -64.9433 69.0949 -64.107V-65.1392H66.7642ZM85.6236 -64.4869C84.9717 -65.0699 84.1703 -65.3614 83.2192 -65.3614C82.3038 -65.3614 81.5224 -65.0747 80.875 -64.5012C80.0623 -63.7797 79.656 -62.8359 79.656 -61.67C79.656 -61.2686 79.7118 -60.8696 79.8235 -60.473C79.993 -59.8804 80.2522 -59.3858 80.6004 -58.9893C81.2701 -58.2438 82.172 -57.8711 83.3063 -57.8711C83.7885 -57.8711 84.2528 -57.9452 84.6994 -58.0933C85.1905 -58.2557 85.6013 -58.4804 85.9318 -58.767C86.3648 -59.1445 86.6663 -59.639 86.8359 -60.2507H84.4047C84.1947 -59.9067 83.8755 -59.7347 83.4469 -59.7347C82.987 -59.7347 82.632 -59.909 82.382 -60.2579C82.2569 -60.4347 82.172 -60.6617 82.1274 -60.9389H86.9833C86.9789 -62.5062 86.5256 -63.6889 85.6236 -64.4869ZM82.161 -62.4082H84.4382C84.4113 -62.695 84.3421 -62.9219 84.2305 -63.0892C84.0252 -63.395 83.7259 -63.5479 83.3331 -63.5479C82.9534 -63.5479 82.6499 -63.4069 82.4222 -63.125C82.2882 -62.9531 82.2011 -62.714 82.161 -62.4082ZM62.4053 -61.6198C62.4053 -62.8765 62.0168 -63.505 61.2398 -63.505C60.4852 -63.505 60.1079 -62.8814 60.1079 -61.6342C60.1079 -60.363 60.492 -59.7275 61.26 -59.7275C62.0235 -59.7275 62.4053 -60.3583 62.4053 -61.6198ZM58.601 -64.2863C57.9311 -63.6124 57.5962 -62.7189 57.5962 -61.6055C57.5962 -60.5255 57.9311 -59.639 58.601 -58.9463C58.9268 -58.6069 59.3232 -58.3429 59.7898 -58.1542C60.2563 -57.9655 60.7464 -57.8711 61.26 -57.8711C61.7689 -57.8711 62.2567 -57.9655 62.7234 -58.1542C63.19 -58.3429 63.5863 -58.6069 63.9123 -58.9463C64.5821 -59.639 64.917 -60.5278 64.917 -61.6127C64.917 -62.7068 64.5821 -63.5981 63.9123 -64.2863C63.5863 -64.6207 63.1922 -64.8835 62.7301 -65.0746C62.268 -65.2657 61.7912 -65.3614 61.3001 -65.3614C60.2106 -65.3614 59.3109 -65.0031 58.601 -64.2863ZM53.003 -67.8773V-64.4941H50.2234V-67.8773H47.4773V-58.0933H50.2234V-61.9496H53.003V-58.0933H55.749V-67.8773H53.003ZM149.89 -65.1392L148.745 -60.7884L147.599 -65.1392H144.987L147.117 -59.1326C147.224 -58.8315 147.278 -58.5973 147.278 -58.4301C147.278 -58.0718 147.019 -57.8926 146.501 -57.8926C146.394 -57.8926 146.177 -57.8974 145.851 -57.9069V-55.8425H147.177C147.481 -55.8425 147.686 -55.845 147.793 -55.8498C148.338 -55.8546 148.787 -56.0028 149.14 -56.2941C149.644 -56.7147 150.086 -57.5175 150.466 -58.7025L152.495 -65.1392H149.89ZM100.07 -201.32C108.669 -201.32 115.639 -194.349 115.639 -185.75C115.639 -177.151 108.669 -170.181 100.07 -170.181C91.4709 -170.181 84.5001 -177.151 84.5001 -185.75C84.5001 -194.349 91.4709 -201.32 100.07 -201.32ZM105.586 -195.304C105.459 -195.378 105.415 -195.54 105.488 -195.667L106.796 -197.932C106.869 -198.059 107.031 -198.103 107.159 -198.029C107.286 -197.956 107.33 -197.793 107.256 -197.666L105.949 -195.401C105.9 -195.316 105.81 -195.268 105.718 -195.268C105.673 -195.268 105.628 -195.28 105.586 -195.304ZM94.5539 -176.197C94.6811 -176.123 94.7246 -175.96 94.6512 -175.833L93.3439 -173.569C93.2944 -173.484 93.2052 -173.436 93.1132 -173.436C93.0682 -173.436 93.0224 -173.447 92.9806 -173.471C92.8534 -173.545 92.8098 -173.708 92.8831 -173.835L94.1907 -176.099C94.264 -176.226 94.4262 -176.27 94.5539 -176.197ZM109.854 -191.133C109.762 -191.133 109.673 -191.181 109.624 -191.266C109.55 -191.393 109.594 -191.556 109.721 -191.63L111.985 -192.937C112.112 -193.01 112.275 -192.967 112.349 -192.839C112.422 -192.712 112.378 -192.55 112.251 -192.476L109.987 -191.169C109.945 -191.145 109.899 -191.133 109.854 -191.133ZM90.1526 -180.332C90.2796 -180.405 90.4422 -180.361 90.5159 -180.234C90.5893 -180.107 90.5458 -179.944 90.4186 -179.871L88.1543 -178.564C88.1125 -178.539 88.0667 -178.528 88.0216 -178.528C87.9297 -178.528 87.8403 -178.576 87.791 -178.661C87.7177 -178.788 87.7612 -178.951 87.8884 -179.024L90.1526 -180.332ZM100.07 -184.467C99.3622 -184.467 98.7862 -185.043 98.7862 -185.75C98.7862 -186.458 99.3622 -187.034 100.07 -187.034C100.778 -187.034 101.353 -186.458 101.353 -185.75C101.353 -185.043 100.778 -184.467 100.07 -184.467ZM109.602 -185.354H101.839C101.657 -184.544 100.934 -183.935 100.07 -183.935C99.0688 -183.935 98.2545 -184.749 98.2545 -185.75C98.2545 -185.908 98.2811 -186.059 98.3192 -186.205L93.511 -188.983C93.2751 -189.119 93.1945 -189.42 93.3307 -189.656C93.4669 -189.892 93.7684 -189.973 94.0042 -189.836L98.8152 -187.057C99.1415 -187.37 99.5825 -187.566 100.07 -187.566C100.934 -187.566 101.657 -186.957 101.839 -186.146H109.602C109.82 -186.146 109.998 -185.969 109.998 -185.75C109.998 -185.531 109.82 -185.354 109.602 -185.354ZM113.628 -186.268C113.914 -186.268 114.146 -186.036 114.146 -185.75C114.146 -185.464 113.914 -185.232 113.628 -185.232H111.08C110.793 -185.232 110.561 -185.464 110.561 -185.75C110.561 -186.036 110.793 -186.268 111.08 -186.268H113.628ZM89.5781 -185.75C89.5781 -185.464 89.346 -185.232 89.0599 -185.232H86.5119C86.2257 -185.232 85.9937 -185.464 85.9937 -185.75C85.9937 -186.036 86.2257 -186.268 86.5119 -186.268H89.0599C89.346 -186.268 89.5781 -186.036 89.5781 -185.75ZM112.251 -179.024C112.378 -178.951 112.422 -178.788 112.349 -178.661C112.299 -178.576 112.21 -178.528 112.118 -178.528C112.073 -178.528 112.027 -178.539 111.985 -178.564L109.721 -179.871C109.594 -179.944 109.55 -180.107 109.624 -180.234C109.697 -180.361 109.859 -180.405 109.987 -180.332L112.251 -179.024ZM90.4186 -191.63C90.5458 -191.556 90.5893 -191.393 90.5159 -191.266C90.4666 -191.181 90.3773 -191.133 90.2853 -191.133C90.2403 -191.133 90.1946 -191.145 90.1526 -191.169L87.8884 -192.476C87.7612 -192.55 87.7177 -192.712 87.791 -192.839C87.8644 -192.967 88.0266 -193.01 88.1543 -192.937L90.4186 -191.63ZM105.949 -176.099L107.256 -173.835C107.33 -173.707 107.286 -173.545 107.159 -173.471C107.117 -173.447 107.071 -173.436 107.026 -173.436C106.934 -173.436 106.845 -173.484 106.796 -173.569L105.488 -175.833C105.415 -175.96 105.459 -176.123 105.586 -176.197C105.713 -176.27 105.875 -176.226 105.949 -176.099ZM94.1907 -195.401L92.8831 -197.666C92.8098 -197.793 92.8534 -197.956 92.9806 -198.029C93.1075 -198.103 93.2702 -198.059 93.3439 -197.932L94.6512 -195.667C94.7246 -195.54 94.6811 -195.378 94.5539 -195.304C94.5119 -195.28 94.4662 -195.268 94.4211 -195.268C94.3293 -195.268 94.24 -195.316 94.1907 -195.401ZM100.07 -175.259C100.356 -175.259 100.588 -175.027 100.588 -174.74V-172.192C100.588 -171.906 100.356 -171.674 100.07 -171.674C99.7835 -171.674 99.5515 -171.906 99.5515 -172.192V-174.74C99.5515 -175.027 99.7835 -175.259 100.07 -175.259ZM100.07 -196.242C99.7835 -196.242 99.5515 -196.474 99.5515 -196.76V-199.308C99.5515 -199.594 99.7835 -199.826 100.07 -199.826C100.356 -199.826 100.588 -199.594 100.588 -199.308V-196.76C100.588 -196.474 100.356 -196.242 100.07 -196.242ZM102.486 -204.09V-209.07C102.486 -209.55 102.097 -209.94 101.616 -209.94H98.5236C98.0431 -209.94 97.6535 -209.55 97.6535 -209.07V-204.09C88.5797 -202.907 81.5726 -195.147 81.5726 -185.75C81.5726 -175.535 89.854 -167.253 100.07 -167.253C110.285 -167.253 118.567 -175.535 118.567 -185.75C118.567 -195.147 111.56 -202.907 102.486 -204.09ZM75.5836 -84.0465C75.5836 -83.2076 75.396 -82.5266 75.0211 -82.0037C74.498 -81.2833 73.7086 -80.9232 72.6528 -80.9232C72.0704 -80.9232 71.6263 -81.0661 71.3205 -81.3524C71.0934 -81.5694 70.9801 -81.8359 70.9801 -82.1517C70.9801 -82.4675 71.0934 -82.7388 71.3205 -82.9659C71.5574 -83.1928 71.9963 -83.3851 72.6379 -83.5432C73.4964 -83.7602 74.0835 -83.9377 74.3994 -84.0761C74.8039 -84.2338 75.1988 -84.4707 75.5836 -84.7865V-84.0465ZM71.6166 -87.8951C71.6166 -88.8917 72.3172 -89.3902 73.7186 -89.3902C74.2611 -89.3902 74.6807 -89.3014 74.9768 -89.1237C75.3417 -88.9065 75.5244 -88.6005 75.5244 -88.2059C75.5244 -87.8111 75.322 -87.4954 74.9175 -87.2586C74.572 -87.061 73.5902 -86.8145 71.9718 -86.5185C70.008 -86.1632 68.6562 -85.7733 67.9159 -85.3491C66.5145 -84.5398 65.814 -83.326 65.814 -81.7076C65.814 -80.5135 66.2234 -79.5415 67.0426 -78.7917C67.9997 -77.9233 69.3024 -77.489 70.9504 -77.489C72.2531 -77.489 73.3237 -77.7407 74.1626 -78.2439C74.6164 -78.5104 75.0901 -78.9641 75.5836 -79.6057C75.5934 -79.3689 75.6451 -79.0876 75.739 -78.762C75.8328 -78.4363 75.9338 -78.1649 76.0425 -77.9478H81.993C81.6771 -78.2043 81.4503 -78.4708 81.3122 -78.7472C81.0753 -79.2405 80.9519 -79.9707 80.9422 -80.938V-87.2438C80.9422 -88.7437 80.6806 -89.8835 80.1576 -90.6632C79.1311 -92.1927 76.9107 -92.9576 73.4964 -92.9576C70.9306 -92.9576 69.0654 -92.4195 67.9011 -91.344C67.013 -90.5348 66.5145 -89.2914 66.4061 -87.6139H71.6314C71.6214 -87.7223 71.6166 -87.816 71.6166 -87.8951ZM95.9783 -92.4986L93.4471 -83.5135L90.9159 -92.4986H85.1431L89.8502 -80.0942C90.0871 -79.4725 90.2055 -78.9889 90.2055 -78.6436C90.2055 -77.9035 89.6329 -77.5333 88.4883 -77.5333C88.2515 -77.5333 87.7727 -77.5433 87.0526 -77.563V-73.2999H89.9835C90.6543 -73.2999 91.1084 -73.305 91.3453 -73.3147C92.549 -73.3247 93.5409 -73.6306 94.3205 -74.2325C95.4356 -75.101 96.4125 -76.7589 97.2514 -79.206L101.737 -92.4986H95.9783ZM114.819 -84.0465C114.819 -83.2076 114.631 -82.5266 114.256 -82.0037C113.733 -81.2833 112.944 -80.9232 111.888 -80.9232C111.306 -80.9232 110.862 -81.0661 110.556 -81.3524C110.329 -81.5694 110.215 -81.8359 110.215 -82.1517C110.215 -82.4675 110.329 -82.7388 110.556 -82.9659C110.793 -83.1928 111.232 -83.3851 111.873 -83.5432C112.732 -83.7602 113.319 -83.9377 113.635 -84.0761C114.039 -84.2338 114.434 -84.4707 114.819 -84.7865V-84.0465ZM110.852 -87.8951C110.852 -88.8917 111.552 -89.3902 112.954 -89.3902C113.496 -89.3902 113.916 -89.3014 114.212 -89.1237C114.577 -88.9065 114.76 -88.6005 114.76 -88.2059C114.76 -87.8111 114.557 -87.4954 114.153 -87.2586C113.807 -87.061 112.825 -86.8145 111.207 -86.5185C109.243 -86.1632 107.891 -85.7733 107.151 -85.3491C105.75 -84.5398 105.049 -83.326 105.049 -81.7076C105.049 -80.5135 105.459 -79.5415 106.278 -78.7917C107.235 -77.9233 108.538 -77.489 110.186 -77.489C111.488 -77.489 112.559 -77.7407 113.398 -78.2439C113.852 -78.5104 114.325 -78.9641 114.819 -79.6057C114.829 -79.3689 114.88 -79.0876 114.974 -78.762C115.068 -78.4363 115.169 -78.1649 115.278 -77.9478H121.228C120.912 -78.2043 120.686 -78.4708 120.547 -78.7472C120.311 -79.2405 120.187 -79.9707 120.177 -80.938V-87.2438C120.177 -88.7437 119.916 -89.8835 119.393 -90.6632C118.366 -92.1927 116.146 -92.9576 112.732 -92.9576C110.166 -92.9576 108.301 -92.4195 107.136 -91.344C106.248 -90.5348 105.75 -89.2914 105.641 -87.6139H110.867C110.857 -87.7223 110.852 -87.816 110.852 -87.8951ZM125 -92.4986V-77.9478H130.507V-84.0316C130.507 -86.8145 131.819 -88.2059 134.444 -88.2059C134.858 -88.2059 135.332 -88.1416 135.865 -88.0135V-92.6023C135.273 -92.7502 134.755 -92.8243 134.311 -92.8243C132.554 -92.8243 131.118 -92.0347 130.003 -90.456V-92.4986H125ZM149.021 -84.0465C149.021 -83.2076 148.834 -82.5266 148.459 -82.0037C147.936 -81.2833 147.146 -80.9232 146.09 -80.9232C145.508 -80.9232 145.064 -81.0661 144.758 -81.3524C144.531 -81.5694 144.418 -81.8359 144.418 -82.1517C144.418 -82.4675 144.531 -82.7388 144.758 -82.9659C144.995 -83.1928 145.434 -83.3851 146.076 -83.5432C146.934 -83.7602 147.521 -83.9377 147.837 -84.0761C148.242 -84.2338 148.636 -84.4707 149.021 -84.7865V-84.0465ZM145.054 -87.8951C145.054 -88.8917 145.755 -89.3902 147.156 -89.3902C147.699 -89.3902 148.118 -89.3014 148.414 -89.1237C148.779 -88.9065 148.962 -88.6005 148.962 -88.2059C148.962 -87.8111 148.76 -87.4954 148.355 -87.2586C148.01 -87.061 147.028 -86.8145 145.41 -86.5185C143.446 -86.1632 142.094 -85.7733 141.354 -85.3491C139.952 -84.5398 139.252 -83.326 139.252 -81.7076C139.252 -80.5135 139.661 -79.5415 140.48 -78.7917C141.437 -77.9233 142.74 -77.489 144.388 -77.489C145.691 -77.489 146.761 -77.7407 147.6 -78.2439C148.054 -78.5104 148.528 -78.9641 149.021 -79.6057C149.031 -79.3689 149.083 -79.0876 149.177 -78.762C149.271 -78.4363 149.371 -78.1649 149.48 -77.9478H155.431C155.115 -78.2043 154.888 -78.4708 154.75 -78.7472C154.513 -79.2405 154.39 -79.9707 154.38 -80.938V-87.2438C154.38 -88.7437 154.118 -89.8835 153.595 -90.6632C152.569 -92.1927 150.349 -92.9576 146.934 -92.9576C144.368 -92.9576 142.503 -92.4195 141.339 -91.344C140.451 -90.5348 139.952 -89.2914 139.844 -87.6139H145.069C145.059 -87.7223 145.054 -87.816 145.054 -87.8951ZM62.3681 -92.8983V-98.1532H44.7087V-92.8983H50.5409V-77.9478H56.6099V-92.8983H62.3681ZM116.725 -173.368L154.537 -173.37L154.535 -174.545L178.098 -169.909L179.98 -175.857L154.535 -183.042L154.531 -185.865C154.531 -185.865 139.841 -191.603 129.358 -193.003V-198.339C129.358 -198.339 129.448 -200.438 126.312 -200.438C126.312 -200.438 123.535 -200.351 123.266 -198.339V-194.315L118.786 -194.927C118.786 -194.927 124.61 -182.904 116.725 -173.369M22.289 -169.909L20.1598 -176.03L45.888 -183.039L45.8873 -185.878H47.0406L47.1294 -190.58C47.1294 -190.58 47.8391 -192.886 50.1457 -193.064C52.4524 -193.241 58.2188 -193.064 58.2188 -193.064C58.2188 -193.064 59.9932 -193.419 60.7916 -190.935L70.7278 -193.153V-198.653C70.7278 -198.653 70.994 -200.25 73.6554 -200.427C76.3168 -200.605 76.7604 -198.564 76.7604 -198.564L76.8492 -194.483L81.3737 -195.104C81.3737 -195.104 75.4562 -183.837 83.4407 -173.369H45.8876L45.8893 -174.433L22.289 -169.909V-169.909ZM103.996 -211.954C105.929 -214.757 103.222 -216.303 103.222 -216.303C115.883 -220.072 128.737 -221.329 128.737 -221.329C138.692 -221.135 159.954 -216.786 161.79 -216.496C163.627 -216.206 163.82 -215.337 165.366 -214.08C166.913 -212.824 165.173 -213.114 165.173 -213.114C135.599 -209.441 136.082 -210.311 136.082 -210.311C107.088 -210.118 103.996 -211.954 103.996 -211.954ZM99.9774 -215.917C97.8291 -215.917 96.0875 -214.965 96.0875 -213.79C96.0875 -212.616 97.8291 -211.664 99.9774 -211.664C102.126 -211.664 103.868 -212.616 103.868 -213.79C103.868 -214.965 102.126 -215.917 99.9774 -215.917ZM95.7806 -212.051C95.7806 -212.051 93.7511 -209.345 74.9049 -207.992C74.9049 -207.992 73.5519 -207.315 34.5067 -213.21C34.5067 -213.21 33.6656 -213.303 34.5067 -214.273C34.5153 -214.285 35.7883 -216.081 40.0156 -216.69C44.268 -217.173 83.3133 -220.362 96.6504 -216.11C96.6504 -216.11 94.041 -214.66 95.7806 -212.051ZM116.725 -159.579V-99.7849H156.381C154.531 -122.846 156.233 -155.95 125.065 -159.579H116.725ZM104.306 -130.719C104.445 -130.535 104.679 -130.443 105.009 -130.443C105.329 -130.443 105.554 -130.527 105.684 -130.695C105.815 -130.863 105.88 -131.1 105.88 -131.407V-131.673H105.266V-131.36C105.266 -131.211 105.251 -131.1 105.22 -131.024C105.189 -130.949 105.12 -130.911 105.013 -130.911C104.908 -130.911 104.836 -130.948 104.798 -131.022C104.759 -131.096 104.74 -131.209 104.74 -131.36V-132.821C104.74 -132.969 104.757 -133.081 104.79 -133.158C104.823 -133.235 104.897 -133.273 105.013 -133.273C105.089 -133.273 105.146 -133.254 105.183 -133.215C105.22 -133.177 105.243 -133.129 105.252 -133.071C105.261 -133.012 105.266 -132.936 105.266 -132.84V-132.543H105.88V-132.813C105.88 -133.111 105.814 -133.341 105.682 -133.501C105.55 -133.661 105.326 -133.741 105.009 -133.741C104.676 -133.741 104.441 -133.651 104.305 -133.469C104.168 -133.288 104.099 -133.02 104.099 -132.666V-131.515C104.099 -131.168 104.168 -130.903 104.306 -130.719ZM102.392 -130.487H103.021V-133.702H102.392V-130.487ZM99.5825 -133.702L100.173 -130.487H100.826L101.417 -133.702H100.845L100.5 -131.479L100.131 -133.702H99.5825ZM97.679 -132.332C97.8272 -132.332 97.9315 -132.37 97.9917 -132.445C98.0518 -132.521 98.0818 -132.639 98.0818 -132.801C98.0818 -132.959 98.0551 -133.076 98.0012 -133.15C97.9475 -133.224 97.8502 -133.261 97.7097 -133.261H97.4908V-132.332H97.679ZM96.8615 -133.702V-130.487H97.4908V-131.943H97.7211L98.0742 -130.487H98.7228L98.2929 -132.054C98.4361 -132.12 98.5359 -132.218 98.5923 -132.346C98.6486 -132.474 98.6768 -132.643 98.6768 -132.852C98.6768 -133.164 98.5923 -133.384 98.4234 -133.511C98.2546 -133.638 98.0026 -133.702 97.6674 -133.702H96.8615ZM94.5245 -133.702V-130.487H95.8868V-130.931H95.1538V-131.939H95.7141V-132.396H95.1538V-133.249H95.8791V-133.702H94.5245ZM92.0913 -130.687C92.2346 -130.524 92.4495 -130.443 92.736 -130.443C92.8947 -130.443 93.0347 -130.477 93.1563 -130.546C93.2779 -130.615 93.3719 -130.709 93.4384 -130.83C93.5048 -130.95 93.5381 -131.087 93.5381 -131.241C93.5381 -131.442 93.4959 -131.617 93.4115 -131.767C93.3272 -131.916 93.2106 -132.058 93.0623 -132.193L92.7476 -132.479C92.6504 -132.566 92.5793 -132.646 92.5346 -132.719C92.4898 -132.792 92.4675 -132.881 92.4675 -132.987C92.4675 -133.061 92.4866 -133.125 92.525 -133.18C92.5633 -133.234 92.6171 -133.261 92.6862 -133.261C92.7807 -133.261 92.8441 -133.221 92.8762 -133.14C92.9081 -133.059 92.9266 -132.934 92.9317 -132.765L93.4806 -132.848C93.4652 -133.108 93.4026 -133.321 93.2925 -133.489C93.1825 -133.657 92.9867 -133.741 92.7053 -133.741C92.4419 -133.741 92.2352 -133.671 92.0856 -133.529C91.9359 -133.387 91.8611 -133.186 91.8611 -132.924C91.8611 -132.746 91.895 -132.594 91.9627 -132.467C92.0307 -132.34 92.1284 -132.221 92.2563 -132.11L92.5787 -131.82C92.6963 -131.714 92.7827 -131.617 92.8378 -131.528C92.8927 -131.44 92.9203 -131.332 92.9203 -131.205C92.9203 -131.128 92.9036 -131.065 92.8704 -131.016C92.8371 -130.967 92.7834 -130.943 92.7093 -130.943C92.6095 -130.943 92.5346 -130.991 92.4846 -131.088C92.4348 -131.184 92.4073 -131.335 92.4023 -131.538L91.8573 -131.443C91.87 -131.102 91.9481 -130.85 92.0913 -130.687ZM97.1312 -138.115H98.2072V-142.185L97.1312 -138.115ZM100.593 -138.115H100.212V-143.831H97.1802L95.2619 -137.902V-136.401H98.2072V-134.878H100.212V-136.401H100.593V-138.115ZM105.821 -134.889H105.872H105.981H106.201H106.576H107.152H107.983C108.016 -135.428 108.072 -135.926 108.152 -136.381C108.232 -136.837 108.325 -137.26 108.432 -137.651C108.539 -138.043 108.654 -138.407 108.78 -138.745C108.905 -139.082 109.029 -139.402 109.152 -139.706C109.275 -139.998 109.397 -140.27 109.519 -140.521C109.64 -140.772 109.75 -141.007 109.847 -141.226C109.945 -141.445 110.029 -141.651 110.1 -141.845C110.171 -142.037 110.217 -142.224 110.239 -142.404V-143.837H105.413V-142.055H108.114C108.103 -142.014 108.089 -141.97 108.073 -141.923C108.057 -141.876 108.034 -141.817 108.005 -141.746C107.976 -141.675 107.94 -141.59 107.897 -141.49C107.853 -141.391 107.799 -141.268 107.736 -141.122C107.673 -140.976 107.596 -140.804 107.505 -140.605C107.415 -140.406 107.308 -140.172 107.185 -139.903C107.014 -139.505 106.854 -139.105 106.704 -138.702C106.553 -138.3 106.419 -137.89 106.302 -137.474C106.184 -137.059 106.083 -136.636 106 -136.207C105.917 -135.778 105.857 -135.339 105.821 -134.889ZM103.025 -134.883L105.258 -144.815H103.28L101.052 -134.883H103.025ZM89.9228 -134.883H94.8842V-136.693H92.2756C92.4024 -136.944 92.5456 -137.172 92.7051 -137.376C92.8644 -137.58 93.0302 -137.778 93.2023 -137.969C93.3742 -138.16 93.5492 -138.354 93.7266 -138.551C93.904 -138.747 94.0763 -138.968 94.2428 -139.211C94.4494 -139.503 94.6188 -139.828 94.751 -140.184C94.8831 -140.54 94.9494 -140.92 94.9494 -141.325C94.9494 -141.722 94.894 -142.08 94.7836 -142.398C94.6731 -142.717 94.5118 -142.988 94.2999 -143.213C94.088 -143.438 93.8262 -143.611 93.5147 -143.733C93.2031 -143.855 92.8443 -143.916 92.4388 -143.916C91.9133 -143.916 91.4869 -143.842 91.159 -143.694C90.8311 -143.546 90.5738 -143.333 90.3874 -143.056C90.2008 -142.778 90.074 -142.438 90.0069 -142.036C89.9399 -141.633 89.9047 -141.179 89.901 -140.673L89.9228 -140.42H91.9334V-141.257C91.9334 -141.827 92.0927 -142.112 92.4116 -142.112C92.6072 -142.112 92.7422 -142.037 92.8164 -141.889C92.8906 -141.742 92.9279 -141.542 92.9279 -141.291C92.9279 -141.025 92.8843 -140.789 92.7974 -140.583C92.7104 -140.377 92.5909 -140.189 92.4388 -140.021C92.1815 -139.74 91.9233 -139.458 91.6644 -139.175C91.4053 -138.892 91.1653 -138.597 90.9444 -138.289C90.7233 -137.982 90.5295 -137.655 90.3628 -137.309C90.1962 -136.962 90.0749 -136.583 89.9988 -136.171C89.9481 -135.886 89.9228 -135.61 89.9228 -135.344V-134.883ZM106.92 -133.702V-130.487H108.282V-130.931H107.549V-131.939H108.109V-132.396H107.549V-133.249H108.275V-133.702H106.92ZM100.131 -112.932L111.889 -131.683C113.453 -133.976 114.367 -136.746 114.367 -139.73C114.367 -147.626 107.966 -154.027 100.07 -154.027C92.1735 -154.027 85.7723 -147.626 85.7723 -139.73C85.7723 -136.69 86.7215 -133.873 88.3386 -131.556L100.131 -112.932ZM114.486 -99.7849H85.6534V-159.579H89.6462V-167.175C92.6143 -165.146 96.2032 -163.959 100.07 -163.959C103.936 -163.959 107.525 -165.146 110.493 -167.175V-159.579H114.486V-99.7849ZM83.4142 -159.579L83.4141 -99.7849H43.7582C45.6088 -122.846 43.9061 -155.95 75.0749 -159.579H83.4142ZM151.9 -52.0516H48.321C48.321 -52.0516 43.6749 -52.4206 43.6749 -56.7331C43.6749 -61.8788 43.6943 -71.6693 43.6943 -71.6693H156.298V-56.7161C156.298 -53.1506 155.259 -52.0516 151.9 -52.0516Z" fill="#ED610B"/>
</g>
<defs>
<clipPath id="clip0_516_1458">
<rect width="250" height="101.987" fill="white"/>
</clipPath>
</defs>
</svg>
